<svg xmlns="http://www.w3.org/2000/svg"><style>:root svg:not(:target){display:none}</style><svg id="full"><path d="m56.76 13.34 8.46-9.37L63.7.5l-8.15 10.86 1.22 1.98zm11.44.2-5.55 4.08-.64-3.01 5.4-4.78.78 3.71zm-8.28 35.93 6.13 3.16 3.01-2.33-6.69-2.72-2.45 1.9zM5.02 3.09 1.95 6.42l11.14 7.86 1.22-2.26-9.29-8.93zm2.36 13.56-4.7-3.1-2.4 3.83 5.15 2.38 1.95-3.11zm1.98 39.3 4.55-3.32 2.27 2.88-4.02 3.99-2.8-3.55z" fill="#FDC305"></path><use href="#medium" width="70.16" height="56.85" y="2.65"></use></svg><svg id="head" viewBox="0 0 25 30"><path d="M22.8 17.82a88.7 88.7 0 0 0-1.4-16.34s-.15-1.29-.87-.24c-.59 1.26-1 2.59-1.2 3.96a71.22 71.22 0 0 0-12.77.33C5.74 2.81 4.35 1.58 3.68 1.9c-.67.33-.75 3.25-.75 3.25l-.33 14c6.7-.92 13.44-1.36 20.2-1.33zm-9.9 4.3c-.12.23-.27.43-.46.6-.28.22-.63.35-1 .37-.55.05-1.1-.1-1.53-.43-.2-.12-.38-.27-.53-.45a1 1 0 0 0-.36-.25s.75 4.07 2.56 4.72c1.82.65 2.16-.75 2.2-1.13a5.53 5.53 0 0 0-.81-3.2c0-.18 0-.18-.03-.18 0 0-.02 0-.04-.05z" fill="#F06351"></path><path d="M17.67 24.76a57.03 57.03 0 0 1 5.08-5.15s.71-.33 1.85-.7a6.3 6.3 0 0 1-1.14 1.98 57.25 57.25 0 0 1-5.98 5.84c-1.8 1.4-4.21 3.1-5.07 3.24A22.54 22.54 0 0 1 .45 21.23l2 .11a31.7 31.7 0 0 0 3.12 2.97c2.06 1.67 5.19 3.8 5.19 3.8s1.4.97 1.62 1.5a31.68 31.68 0 0 0 5.3-4.85z" fill="#F06351"></path><path d="M9.54 15.12c-.35-.24-.66-.45-.63-.4.47.6 1.01 1.13 1.63 1.58h-.3l-.42-.03c-.29-.03-.56-.06-.5.03.07.14.63.26.99.26s.62-.17.62-.34-.2-.35-.61-.58c-.19-.11-.5-.33-.78-.52zm5.76 1.04a30.8 30.8 0 0 0 1.09-1.32c.08-.11.05 0 .05 0l-.85 1.26c.24-.04.57-.07.8-.09l.2-.02c.19-.02.23.12.12.18-.4.12-.8.22-1.22.28-.36.05-.28-.23-.19-.29zm-2.04 4.72c.46-.2.84-.55 1.08-1 .28-.65 0-.9-.43-.98-.6-.11-1.23.01-1.75.33-.39.37-.34.73 0 1 .34.26.7.47 1.1.65zm-3.37 1.9c.4.24.85.4 1.31.47a2.27 2.27 0 0 0 1.7-.93 1.54 1.54 0 0 0 1.11.72c.6.04 1.22-.42 1.89-1.4a.14.14 0 0 0-.04-.2.14.14 0 0 0-.2.05c-.57.86-1 1.31-1.63 1.27-.61-.04-1-.79-1-.79l-.1-.21-.13.18a2.1 2.1 0 0 1-1.64 1 3.23 3.23 0 0 1-2.1-1.3.14.14 0 0 0-.2 0 .15.15 0 0 0 0 .2c.28.38.62.7 1.03.94z" fill="#111"></path></svg><svg id="medium"><path d="M53 19.61a22.36 22.36 0 0 0-7.09-9.12 22.62 22.62 0 0 0-31.48 4.02 22.24 22.24 0 0 0-3.12 22.03 22.35 22.35 0 0 0 6.96 9.22 22.61 22.61 0 0 0 10.66 4.56 99.44 99.44 0 0 1-1.49-5.98 28.5 28.5 0 0 0 4.19 2.23s.1 1.88.24 3.98c1.57.03 3.15-.1 4.69-.4a1.85 1.85 0 0 1 0-.67c.25-1.63.96-4.57 1.1-6.46a13.3 13.3 0 0 0 2.55-3.24l-.05.38c-.49 3.72-1.5 7.69-2.12 8.79-.2.36-.44.7-.73 1a22.63 22.63 0 0 0 14.92-11.57 22.22 22.22 0 0 0 .76-18.77zm-1.3 3.31c-.39.37-1.19.63-1.32-.5a29.94 29.94 0 0 1-.16-1.93s-1.7-3-2.34-3.03c-.63-.04-5.12 3.03-6.3 4.36-1.04 1.13-1.24 1.05-1.24 3.03 0 1.49.2 7.12.09 11.43l-7.17 1.9a56.68 56.68 0 0 1-6.86 1.5l-.88-5.09h-.12L23.14 23.1s-3.35-1.25-4.58-1.6a3.33 3.33 0 0 0-3.52.56 4.42 4.42 0 0 0-1.52 3.35c.19.41.33.83.42 1.27.05.42-1.05.37-1.76.37-.7 0-.8-1.25-.25-2.73.43-1.13.97-2.22 1.6-3.26.47-.92 1.09-1.77 1.82-2.52 0 0 .12-.3 1.1-.2.97.08 6.4.37 6.4.37l.04-1.98c5.9-.81 11.85-1.2 17.8-1.17v1.6a19.94 19.94 0 0 1 7.16-1.75.8.8 0 0 1 .68.34c.3.38 2.12 2.62 2.33 2.94.59.84 1.13 1.71 1.6 2.62a5.42 5.42 0 0 1-.76 1.6v.01z" fill="#FDC305"></path><path d="M40.22 39.78c.11-.93.17-2.17.2-3.54l-7.16 1.9a56.68 56.68 0 0 1-6.86 1.54l.98 4.36c0 .1 0 .19.06.28a28.5 28.5 0 0 0 4.19 2.23 38.46 38.46 0 0 0 6.05-3.6V43c1-.94 1.86-2.02 2.54-3.22z" fill="#F06351"></path><path d="M32.22 32.09c1.82 0 3.3-1.47 3.3-3.27 0-1.81-1.48-3.27-3.3-3.27a3.28 3.28 0 0 0-3.3 3.27c0 1.8 1.48 3.27 3.3 3.27z" fill="#FDC305"></path><path d="m36.6 26.16-2.76 1.14 1.01-4.91-6.6 8.51 2.76-1.14L30 34.68l6.6-8.52zm-6.5 3.34 3.65-4.72-.7 3.49 1.75-.72-3.68 4.73.7-3.49-1.72.7zm-1.24-1.29c.55 0 .99-.43.99-.97a.98.98 0 0 0-.99-.98.98.98 0 0 0-.98.98c0 .54.44.97.98.97zm5.74 3.55c.38 0 .7-.31.7-.7a.7.7 0 0 0-.7-.68.7.7 0 0 0-.7.69c0 .38.31.69.7.69zm.84-1.9a.3.3 0 0 0 .31-.3.3.3 0 0 0-.3-.3.3.3 0 0 0-.32.3c0 .17.14.3.31.3z" fill="#111"></path><use href="#head" width="21.31" height="25.71" x="20.73" y=".57"></use><path d="m50.87 18.7-.88-1.12a38.4 38.4 0 0 1 12.04 9.37c-9.83-2.19-10.07 6.35-10.07 6.35-7.13-3.28-6.87 2.98-6.87 2.98-.7-1.03-3.04-1.46-4.64-1.64.03-2.7-.03-5.63-.07-7.64l-.04-2.15c0-1.73.15-1.89.88-2.65l.35-.38c1.19-1.33 5.68-4.4 6.32-4.36.63.03 2.33 3.03 2.33 3.03s.05.75.18 1.88.93.88 1.32.5c.33-.47.59-1 .76-1.55-.49-.9-1.02-1.77-1.61-2.61zm-32.31 2.8c1.23.35 4.58 1.6 4.58 1.6l2.4 11.5a5.36 5.36 0 0 0-3.86 1.13c-.84.61-1.62 1.3-2.33 2.06l-.47-3.37s-.13-1.97-2-1.84c-1.66.2-3.32.52-4.94.96 0 0 .22-3.6-4.4-4.07-2.39-.28-4.8-.35-7.2-.2 0 0 8.4-5.73 13.19-8.2a19.83 19.83 0 0 0-1.6 3.25c-.56 1.48-.45 2.73.25 2.73h.19c.7 0 1.61.01 1.57-.37a6.2 6.2 0 0 0-.42-1.27 4.4 4.4 0 0 1 1.52-3.35 3.32 3.32 0 0 1 3.52-.55z" fill="#F06351"></path></svg><svg id="small"><path d="M27.74 25.06c-1.16 1.28-1.39 1.2-1.39 3.45v9.18a16.64 16.64 0 0 0 7.47-13.86 17.3 17.3 0 0 0-.32-3.1c-2.07 1.23-4 2.68-5.76 4.33zM6.86 26.55s-3.79-1.44-5.19-1.83a8.53 8.53 0 0 0-1.17-.28 16.65 16.65 0 0 0 8.68 14L6.86 26.55zm-.25-5.14v-2.6l.94-8.59A16.66 16.66 0 0 0 .73 21.08l5.88.33zm20.17-3.59s0 1.21-.06 1.82a25.52 25.52 0 0 1 6-1.82 16.67 16.67 0 0 0-6.83-8.2l.9 8.2z" fill="#FDC305"></path><use href="#head" width="24.15" height="29.14" x="3.95" y=".83"></use></svg><svg id="type" viewBox="0 0 102 19"><path d="M1.281 16.538a6.865 6.865 0 0 1-1.264-4.307V5.846a6.95 6.95 0 0 1 1.185-4.384C2.072.462 3.415 0 5.391 0s3.24.462 4.03 1.308a5.422 5.422 0 0 1 1.186 3.769v1.538H6.734V4.846a3.693 3.693 0 0 0-.237-1.538 1.12 1.12 0 0 0-.456-.473 1.164 1.164 0 0 0-.65-.143c-.553 0-.948.154-1.107.539a4.846 4.846 0 0 0-.237 1.692v8.23a3.111 3.111 0 0 0 .316 1.616c.159.385.554.539 1.107.539.553 0 .87-.154 1.027-.539.18-.52.26-1.067.237-1.615v-1.846h3.873v1.538a5.775 5.775 0 0 1-1.186 3.846c-.79.923-2.133 1.385-4.03 1.385-1.897-.077-3.32-.539-4.11-1.539ZM15.27.23h4.504l3.32 17.54h-3.636l-.632-3.693h-2.608l-.632 3.692H11.87L15.27.231Zm3.24 11.54-.949-6.847-.948 6.846h1.897ZM25.86 3.154h-2.688V.23h9.405v2.846H29.89v14.692h-4.03V3.154ZM46.724.23v1.847h-4.505v5.77h3.635v1.768H42.22v6.462h4.505v1.77H39.69V.23h7.034ZM48.778.23h1.739l5.137 11.616V.231h2.055v17.538h-1.581l-5.216-12v12h-2.134V.231ZM60.08.23h6.954v1.847H62.53v5.77h3.636v1.768h-3.636v6.462h4.505v1.77H60.08V.23ZM72.724.23a6.452 6.452 0 0 1 4.03 1.078c.87.692 1.265 1.923 1.265 3.538 0 2.23-.711 3.615-2.213 4.077l2.53 8.77h-2.45L73.514 9.46h-1.976v8.231h-2.53V.231h3.715Zm-.158 7.54a3.524 3.524 0 0 0 2.292-.616c.474-.385.711-1.154.711-2.308a4.846 4.846 0 0 0-.237-1.692 1.974 1.974 0 0 0-.87-.923 3.69 3.69 0 0 0-1.738-.308h-1.106v5.77h.948v.076ZM81.18 16.461A7.613 7.613 0 0 1 80.074 12V6.154c-.02-1.115.113-2.227.395-3.308a3.916 3.916 0 0 1 1.502-2c.882-.508 1.9-.75 2.924-.692 1.66 0 2.845.384 3.556 1.23a5.77 5.77 0 0 1 1.107 3.847v.615h-2.371v-.538a11.03 11.03 0 0 0-.159-1.923 1.533 1.533 0 0 0-.632-1A2.493 2.493 0 0 0 84.895 2a2.417 2.417 0 0 0-1.58.461c-.187.153-.339.34-.447.552a1.703 1.703 0 0 0-.186.68 14.01 14.01 0 0 0-.158 2.076v6.539a6.818 6.818 0 0 0 .474 2.923c.316.615.948.846 1.897.846a1.96 1.96 0 0 0 1.092-.182c.337-.165.617-.422.805-.741a6.911 6.911 0 0 0 .553-3.077v-1.23h-2.292v-1.77h4.584v8.692h-1.581l-.237-2a3.143 3.143 0 0 1-1.226 1.658A3.288 3.288 0 0 1 84.58 18a4.045 4.045 0 0 1-1.899-.352 3.933 3.933 0 0 1-1.5-1.187ZM94.695 11.615 90.822.308h2.37l2.767 8.461L98.646.308h2.371l-3.873 11.307v6.154h-2.37v-6.154h-.08Z"></path></svg></svg>